Coordinates
version=1
nRows=12
nColumns=24
inDegrees=yes

Units are S.I. units (second, meters, Newtons, ...)
Angles are in degrees.

endheader
time	torso_tilt	torso_list	torso_rotation	torso_tx	torso_ty	torso_tz	lumbar_extension	lumbar_bending	lumbar_rotation	hip_flexion_r	hip_adduction_r	hip_rotation_r	knee_angle_r	ankle_angle_r	subtalar_angle_r	mtp_angle_r	hip_flexion_l	hip_adduction_l	hip_rotation_l	knee_angle_l	ankle_angle_l	subtalar_angle_l	mtp_angle_l
     29.19000000	    -14.63576534	     -1.33836628	     13.39740126	     -0.12641179	      1.04613227	      0.03224053	      7.15272976	      2.24939754	     -6.50672647	     -9.90085785	      2.34785144	     -8.68627236	    -25.70473692	    -23.10050085	     -2.11279629	      0.00000000	     27.59005514	      8.20954345	      2.73765960	    -25.53198767	     16.83535519	      5.71543607	      0.00000000
     29.20000000	    -14.58266237	     -1.34253255	     13.46375719	     -0.12603440	      1.04448247	      0.03081849	      6.98894930	      1.87881042	     -6.34730142	     -9.36952818	      2.75814853	     -8.63733045	    -29.21120426	    -23.29901440	     -0.90831177	      0.00000000	     26.77197733	      8.15272436	      4.37464931	    -20.47409613	     16.83724940	      4.60695202	      0.00000000
     29.21000000	    -14.45808527	     -1.48454026	     13.48862022	     -0.12523633	      1.04182604	      0.03027820	      6.93372147	      1.80874450	     -5.85182796	     -9.08353608	      3.11046710	     -8.94099077	    -32.59625186	    -22.92623512	      0.19963487	      0.00000000	     25.79971577	      8.23618394	      6.13416714	    -15.98896370	     16.71049096	      2.50696750	      0.00000000
     29.22000000	    -14.37033375	     -1.61910147	     13.42520350	     -0.12479825	      1.03803229	      0.02960101	      7.00845239	      1.79421070	     -5.34272995	     -8.75345530	      3.33786091	     -9.23360982	    -36.24764814	    -22.29281594	      0.96963689	      0.00000000	     24.88997213	      8.33774079	      7.56785448	    -12.40401796	     16.33196319	      1.80890556	      0.00000000
     29.23000000	    -14.32964598	     -1.71828734	     13.29617030	     -0.12485549	      1.03316730	      0.02860689	      7.41428959	      1.73670503	     -4.87668003	     -8.67636569	      3.43746167	     -9.66245825	    -39.95620728	    -21.62174240	      0.92107411	      0.00000000	     23.90623944	      8.44918239	      8.75391400	     -9.96392954	     16.09139268	      0.09862727	      0.00000000
     29.24000000	    -14.19187543	     -1.85517390	     13.11647285	     -0.12454310	      1.02729705	      0.02789612	      7.94745099	      1.86466514	     -4.35025907	     -8.83584525	      3.35613619	    -10.22978674	    -43.63654677	    -21.22681620	      0.30435327	      0.00000000	     23.02476442	      8.72636594	      9.45404954	     -9.00761428	     15.99923304	     -0.81471935	      0.00000000
     29.25000000	    -14.06107982	     -1.95932354	     12.86039966	     -0.12453050	      1.02049244	      0.02697635	      8.50959653	      1.96272113	     -3.82771284	     -8.88238090	      3.16572501	    -10.79637537	    -47.50576968	    -20.88925204	     -0.79752163	      0.00000000	     22.47001152	      9.00351324	      9.77553572	     -9.47397501	     16.23529490	     -0.49172253	      0.00000000
     29.26000000	    -13.94214721	     -2.05963280	     12.54977866	     -0.12473200	      1.01295794	      0.02607223	      9.26399489	      2.25270774	     -3.19943238	     -9.09123422	      2.55843711	    -11.75304529	    -51.40831389	    -20.47126959	     -1.99357614	      0.00000000	     22.01910161	      9.52673258	     10.01196425	    -11.32179831	     15.25005234	     -0.01236768	      0.00000000
     29.27000000	    -13.82694095	     -2.13376753	     12.15927788	     -0.12505442	      1.00460581	      0.02502667	     10.05193071	      2.65013470	     -2.55620445	     -9.25066303	      1.65157724	    -12.76342672	    -55.43545021	    -19.81721673	     -3.34475069	      0.00000000	     21.82213001	     10.19676108	      9.89346482	    -14.47992450	     11.70763203	     -1.34565034	      0.00000000
     29.28000000	    -13.69252472	     -2.19236060	     11.71795433	     -0.12544570	      0.99541473	      0.02392163	     11.05822739	      2.95414123	     -1.88927456	     -9.72603283	      0.72885948	    -13.89517102	    -59.30647002	    -18.98433310	     -5.10637927	      0.00000000	     21.41265624	     10.72386688	      9.07347391	    -18.29053044	      8.16164642	     -2.70553108	      0.00000000
     29.29000000	    -13.60031636	     -2.24817426	     11.12501806	     -0.12609682	      0.98546531	      0.02282952	     12.06801977	      3.33856654	     -1.11625766	    -10.04470089	     -0.35974356	    -15.00478740	    -63.34148038	    -17.79637152	     -7.04427173	      0.00000000	     21.06080765	     11.30102628	      8.24665646	    -22.17323277	      6.35032615	     -4.44370415	      0.00000000
     29.30000000	    -13.65055801	     -2.33031949	     10.53235060	     -0.12767658	      0.97513785	      0.02179459	     13.02323790	      3.87626840	     -0.18220890	     -9.94050590	     -1.73141710	    -16.31616363	    -67.64875541	    -16.12671934	     -9.03408363	      0.00000000	     21.42542906	     12.18708008	      7.30744745	    -27.35150290	     10.03918005	     -4.73119821	      0.00000000
